<svg width="24" height="24" viewBox="0 0 24 24" fill="none" xmlns="http://www.w3.org/2000/svg">
<path d="M7.34989 11.9131V14.6129C7.34989 15.1731 7.8021 15.6253 8.3623 15.6253C8.9225 15.6253 9.37472 15.1731 9.37472 14.6129V11.9131C9.37472 11.3529 8.9225 10.9007 8.3623 10.9007C7.8021 10.9007 7.34989 11.3529 7.34989 11.9131ZM11.3995 11.9131V14.6129C11.3995 15.1731 11.8518 15.6253 12.412 15.6253C12.9722 15.6253 13.4244 15.1731 13.4244 14.6129V11.9131C13.4244 11.3529 12.9722 10.9007 12.412 10.9007C11.8518 10.9007 11.3995 11.3529 11.3995 11.9131ZM7.01241 19H17.8115C18.3717 19 18.8239 18.5478 18.8239 17.9876C18.8239 17.4274 18.3717 16.9752 17.8115 16.9752H7.01241C6.45221 16.9752 6 17.4274 6 17.9876C6 18.5478 6.45221 19 7.01241 19ZM15.4492 11.9131V14.6129C15.4492 15.1731 15.9014 15.6253 16.4616 15.6253C17.0218 15.6253 17.474 15.1731 17.474 14.6129V11.9131C17.474 11.3529 17.0218 10.9007 16.4616 10.9007C15.9014 10.9007 15.4492 11.3529 15.4492 11.9131ZM11.7843 5.15692L6.45221 7.96469C6.17549 8.10643 6 8.39665 6 8.70712C6 9.17284 6.37797 9.5508 6.84368 9.5508H17.987C18.446 9.5508 18.8239 9.17284 18.8239 8.70712C18.8239 8.39665 18.6484 8.10643 18.3717 7.96469L13.0397 5.15692C12.6482 4.94769 12.1757 4.94769 11.7843 5.15692Z" fill="white"/>
</svg>
