<svg width="32" height="32" viewBox="0 0 32 32" fill="none" xmlns="http://www.w3.org/2000/svg">
<path fill-rule="evenodd" clip-rule="evenodd" d="M19.0166 17.1085C19.0166 16.015 18.5816 14.965 17.8076 14.1925C17.0351 13.4185 15.9851 12.9835 14.8916 12.9835C11.9126 12.9835 7.3706 12.9835 4.3916 12.9835C3.2966 12.9835 2.2481 13.4185 1.4741 14.1925C0.701602 14.965 0.266602 16.015 0.266602 17.1085V27.6085C0.266602 28.7035 0.701602 29.752 1.4741 30.526C2.2481 31.2985 3.2966 31.7335 4.3916 31.7335H14.8916C15.9851 31.7335 17.0351 31.2985 17.8076 30.526C18.5816 29.752 19.0166 28.7035 19.0166 27.6085V17.1085ZM14.8916 26.1085C14.8916 25.2805 14.2196 24.6085 13.3916 24.6085C12.5636 24.6085 11.8916 25.2805 11.8916 26.1085C11.8916 26.9365 12.5636 27.6085 13.3916 27.6085C14.2196 27.6085 14.8916 26.9365 14.8916 26.1085ZM5.8916 24.6085C5.0636 24.6085 4.3916 25.2805 4.3916 26.1085C4.3916 26.9365 5.0636 27.6085 5.8916 27.6085C6.7196 27.6085 7.3916 26.9365 7.3916 26.1085C7.3916 25.2805 6.7196 24.6085 5.8916 24.6085ZM9.6416 20.8585C8.8136 20.8585 8.1416 21.5305 8.1416 22.3585C8.1416 23.1865 8.8136 23.8585 9.6416 23.8585C10.4696 23.8585 11.1416 23.1865 11.1416 22.3585C11.1416 21.5305 10.4696 20.8585 9.6416 20.8585ZM13.3916 17.1085C12.5636 17.1085 11.8916 17.7805 11.8916 18.6085C11.8916 19.4365 12.5636 20.1085 13.3916 20.1085C14.2196 20.1085 14.8916 19.4365 14.8916 18.6085C14.8916 17.7805 14.2196 17.1085 13.3916 17.1085ZM7.3916 18.6085C7.3916 17.7805 6.7196 17.1085 5.8916 17.1085C5.0636 17.1085 4.3916 17.7805 4.3916 18.6085C4.3916 19.4365 5.0636 20.1085 5.8916 20.1085C6.7196 20.1085 7.3916 19.4365 7.3916 18.6085Z" fill="#FFEA3D"/>
<path fill-rule="evenodd" clip-rule="evenodd" d="M10.792 11.4835H14.8915C16.3825 11.4835 17.8135 12.076 18.868 13.132C19.924 14.1865 20.5165 15.6175 20.5165 17.1085V20.9965C21.7525 21.415 22.603 21.688 22.657 21.7075C23.686 22.078 24.82 22.024 25.81 21.559C26.8 21.0925 27.5635 20.2525 27.934 19.2235C28.9435 16.42 30.481 12.1465 31.4905 9.34303C31.861 8.31402 31.807 7.18003 31.3405 6.19003C30.8755 5.20003 30.0355 4.43653 29.005 4.06603C26.203 3.05653 21.9295 1.51902 19.126 0.509525C18.097 0.139025 16.9615 0.193025 15.973 0.659525C14.983 1.12452 14.218 1.96452 13.8475 2.99502L10.792 11.4835ZM24.5605 16.4155C24.841 15.6355 24.436 14.776 23.6575 14.4955C22.879 14.215 22.018 14.62 21.739 15.3985C21.4585 16.1785 21.8635 17.038 22.642 17.3185C23.4205 17.599 24.2815 17.194 24.5605 16.4155ZM21.3985 9.69703C20.62 9.41652 19.7605 9.82153 19.48 10.6015C19.1995 11.38 19.6045 12.2395 20.383 12.52C21.1615 12.8005 22.0225 12.3955 22.303 11.617C22.5835 10.8385 22.1785 9.97752 21.3985 9.69703ZM20.044 6.81853C20.3245 6.04003 19.9195 5.17903 19.141 4.89853C18.361 4.61953 17.5015 5.02303 17.221 5.80303C16.9405 6.58153 17.3455 7.44103 18.124 7.72153C18.904 8.00203 19.7635 7.59703 20.044 6.81853Z" fill="#FFEA3D"/>
</svg>
