<svg width="16" height="16" viewBox="0 0 16 16" fill="none" xmlns="http://www.w3.org/2000/svg">
<g clipPath="url(#clip0_523_16791)">
<path d="M6.48962 13C4.92761 13 3.65625 11.7286 3.65625 10.1666V3.33337H2.48962C1.47827 3.33337 0.65625 4.15527 0.65625 5.16663V14.1666C0.65625 15.178 1.47827 16 2.48962 16H10.8229C11.8342 16 12.6562 15.178 12.6562 14.1666V13H6.48962Z" fill="#7B61FF"/>
<path d="M15.3229 1.83337C15.3229 0.820679 14.5022 0 13.4896 0H6.48962C5.47693 0 4.65625 0.820679 4.65625 1.83337V10.1666C4.65625 11.1793 5.47693 12 6.48962 12H13.4896C14.5022 12 15.3229 11.1793 15.3229 10.1666V1.83337Z" fill="#7B61FF"/>
</g>
<defs>
<clipPath id="clip0_523_16791">
<rect width="16" height="16" fill="white"/>
</clipPath>
</defs>
</svg>
