<svg width="36" height="36" viewBox="0 0 36 36" fill="none" xmlns="http://www.w3.org/2000/svg">
<path d="M18.6438 13.8431L17.6484 11.8262L16.6531 13.8431C16.5506 14.0506 16.3527 14.1945 16.1236 14.2277L13.8978 14.5512L15.5085 16.1211C15.6741 16.2827 15.7498 16.5154 15.7107 16.7435L15.3304 18.9603L17.3213 17.9137C17.4236 17.8598 17.5361 17.8329 17.6484 17.8329C17.7608 17.8329 17.8732 17.8599 17.9756 17.9137L19.9664 18.9603L19.5862 16.7435C19.5471 16.5154 19.6227 16.2827 19.7884 16.1211L21.399 14.5512L19.1732 14.2277C18.9442 14.1945 18.7462 14.0506 18.6438 13.8431Z" fill="#FFEA3D"/>
<path d="M27.7661 16.0169C27.7059 15.8316 27.7059 15.6357 27.7661 15.4504L28.3359 13.6968C28.6479 12.7368 28.3087 11.693 27.492 11.0996L26.0004 10.0158C25.8427 9.90127 25.7275 9.74278 25.6674 9.55744L25.0975 7.80384C24.7855 6.8438 23.8977 6.19875 22.8882 6.19875H21.0443C20.8495 6.19875 20.6631 6.13821 20.5055 6.02367L19.0138 4.93988C18.1971 4.34658 17.0996 4.34658 16.283 4.93988L14.7913 6.02367C14.6336 6.13821 14.4473 6.19875 14.2525 6.19875H12.4086C11.3992 6.19875 10.5113 6.8438 10.1992 7.80392L9.62943 9.55758C9.56924 9.74285 9.45407 9.90134 9.29643 10.0159L7.80475 11.0997C6.98814 11.693 6.64895 12.7368 6.96093 13.6968L7.53074 15.4505C7.591 15.6357 7.591 15.8316 7.53074 16.017L6.96093 17.7706C6.64895 18.7307 6.98814 19.7744 7.80482 20.3678L9.29657 21.4517C9.45421 21.5662 9.56931 21.7247 9.6295 21.9101L10.1993 23.6637C10.5114 24.6237 11.3992 25.2688 12.4087 25.2688H14.2525C14.4474 25.2688 14.6337 25.3293 14.7913 25.4438L16.2831 26.5276C16.6915 26.8243 17.1699 26.9727 17.6485 26.9727C18.127 26.9727 18.6056 26.8243 19.0139 26.5276L20.5057 25.4438C20.6633 25.3293 20.8496 25.2688 21.0445 25.2688H22.8883C23.8977 25.2688 24.7856 24.6237 25.0977 23.6636L25.6675 21.9099C25.7277 21.7247 25.8428 21.5662 26.0005 21.4516L27.4922 20.3678C28.3089 19.7744 28.648 18.7307 28.3361 17.7706L27.7661 16.0169ZM23.4009 14.5638L21.0348 16.8701L21.5934 20.1267C21.6387 20.3905 21.5302 20.6571 21.3136 20.8145C21.1911 20.9035 21.046 20.9488 20.9002 20.9488C20.7883 20.9488 20.676 20.9221 20.5731 20.868L17.6484 19.3304L14.7237 20.868C14.4869 20.9924 14.1997 20.9718 13.9832 20.8145C13.7668 20.6572 13.6583 20.3906 13.7035 20.1267L14.262 16.8701L11.8959 14.5638C11.7043 14.3769 11.6354 14.0975 11.7181 13.843C11.8008 13.5885 12.0208 13.403 12.2856 13.3644L15.5556 12.8893L17.0179 9.92623C17.1363 9.68625 17.3807 9.53431 17.6484 9.53431C17.9161 9.53431 18.1605 9.68625 18.279 9.92623L19.7413 12.8893L23.0112 13.3644C23.2761 13.4029 23.4961 13.5885 23.5788 13.843C23.6615 14.0975 23.5925 14.3769 23.4009 14.5638Z" fill="#FFEA3D"/>
<path d="M30.8854 25.2028L27.5639 21.8806L26.8361 22.4086L26.3011 24.0546C25.8194 25.5382 24.4476 26.5345 22.8881 26.5345H21.1577L20.4764 27.0288L24.7683 31.32C24.9011 31.4529 25.0811 31.526 25.2654 31.526C25.3132 31.526 25.3617 31.5211 25.4095 31.5106C25.6415 31.462 25.8335 31.2996 25.92 31.0788L27.2489 27.6827L30.6443 26.3545C30.8658 26.2681 31.0282 26.0761 31.0767 25.8434C31.1252 25.6113 31.0535 25.3702 30.8854 25.2028Z" fill="#FFEA3D"/>
<path d="M14.1391 26.5345H12.4087C10.8492 26.5345 9.47741 25.5382 8.99577 24.0546L8.46069 22.4086L7.73296 21.8806L4.4114 25.2028C4.24335 25.3702 4.17163 25.6113 4.22015 25.8434C4.26866 26.0761 4.43108 26.2681 4.65257 26.3545L8.04796 27.6827L9.37686 31.0788C9.46335 31.2996 9.6553 31.462 9.88733 31.5106C9.93515 31.5211 9.98366 31.526 10.0315 31.526C10.2157 31.526 10.3957 31.4529 10.5286 31.32L14.8205 27.0288L14.1391 26.5345Z" fill="#FFEA3D"/>
</svg>
