<svg width="20" height="20" viewBox="0 0 20 20" fill="none" xmlns="http://www.w3.org/2000/svg">
<path d="M11.743 5.60183H16.7044C17.0979 5.60183 17.2946 5.60183 17.4097 5.68455C17.5101 5.75673 17.5754 5.86782 17.5898 5.99062C17.6062 6.13137 17.5107 6.30334 17.3196 6.64728L16.1355 8.7786C16.0662 8.90333 16.0316 8.9657 16.018 9.03175C16.006 9.0902 16.006 9.1505 16.018 9.20895C16.0316 9.275 16.0662 9.33737 16.1355 9.4621L17.3196 11.5934C17.5107 11.9374 17.6062 12.1093 17.5898 12.2501C17.5754 12.3729 17.5101 12.484 17.4097 12.5561C17.2946 12.6389 17.0979 12.6389 16.7044 12.6389H10.5115C10.0189 12.6389 9.77254 12.6389 9.58438 12.543C9.41887 12.4587 9.2843 12.3241 9.19997 12.1586C9.1041 11.9704 9.10409 11.7241 9.10409 11.2315V9.12035M6.02539 17.9166L2.50687 3.84257M3.82636 9.12035H10.3356C10.8282 9.12035 11.0745 9.12035 11.2627 9.02448C11.4282 8.94014 11.5628 8.80558 11.6471 8.64006C11.743 8.4519 11.743 8.20558 11.743 7.71294V3.49072C11.743 2.99808 11.743 2.75176 11.6471 2.5636C11.5628 2.39809 11.4282 2.26352 11.2627 2.17919C11.0745 2.08331 10.8282 2.08331 10.3356 2.08331H3.86962C3.25518 2.08331 2.94796 2.08331 2.73783 2.21063C2.55366 2.32221 2.41682 2.49747 2.35324 2.70321C2.28069 2.93794 2.35521 3.23599 2.50424 3.83208L3.82636 9.12035Z" stroke="white" strokeWidth="1.66667" strokeLinecap="round" strokeLinejoin="round"/>
</svg>
