<svg width="24" height="24" viewBox="0 0 24 24" fill="none" xmlns="http://www.w3.org/2000/svg">
<g opacity="0.65">
<path d="M16.2353 10.5882V8.70588C16.2353 6.35293 14.353 4.47058 12 4.47058C9.64708 4.47058 7.76473 6.35293 7.76473 8.70588V10.5882C6.96473 10.5882 6.35297 11.2 6.35297 12V18.1176C6.35297 18.8706 6.96473 19.5294 7.76473 19.5294H16.2353C17.0353 19.5294 17.6471 18.8706 17.6471 18.1176V12C17.6471 11.2 17.0353 10.5882 16.2353 10.5882ZM8.70591 8.70588C8.70591 6.87058 10.1647 5.41176 12 5.41176C13.8353 5.41176 15.2941 6.87058 15.2941 8.70588V10.5882H8.70591V8.70588ZM12.4706 15.6706V16.7059C12.4706 16.9882 12.2824 17.1765 12 17.1765C11.7177 17.1765 11.5294 16.9882 11.5294 16.7059V15.6706C10.9647 15.4823 10.5883 14.9647 10.5883 14.3529C10.5883 13.5529 11.2 12.9412 12 12.9412C12.8 12.9412 13.4118 13.5529 13.4118 14.3529C13.4118 14.9647 13.0353 15.4823 12.4706 15.6706Z" fill="white"/>
</g>
</svg>
