<svg width="48" height="48" viewBox="0 0 48 48" fill="none" xmlns="http://www.w3.org/2000/svg">
<g filter="url(#filter0_d_1291_2875)">
<path d="M26.0914 18.7222H32.0451C32.5173 18.7222 32.7534 18.7222 32.8914 18.8215C33.0119 18.9081 33.0903 19.0414 33.1075 19.1888C33.1272 19.3577 33.0126 19.564 32.7833 19.9768L31.3624 22.5343C31.2793 22.684 31.2377 22.7589 31.2214 22.8381C31.207 22.9083 31.207 22.9806 31.2214 23.0508C31.2377 23.13 31.2793 23.2049 31.3624 23.3545L32.7833 25.9121C33.0126 26.3248 33.1272 26.5312 33.1075 26.7001C33.0903 26.8475 33.0119 26.9808 32.8914 27.0674C32.7534 27.1667 32.5173 27.1667 32.0451 27.1667H24.6136C24.0224 27.1667 23.7269 27.1667 23.5011 27.0516C23.3024 26.9504 23.141 26.7889 23.0398 26.5903C22.9247 26.3645 22.9247 26.0689 22.9247 25.4778V22.9444M19.2303 33.5L15.0081 16.6111M16.5914 22.9444H24.4025C24.9937 22.9444 25.2892 22.9444 25.515 22.8294C25.7137 22.7282 25.8751 22.5667 25.9763 22.3681C26.0914 22.1423 26.0914 21.8467 26.0914 21.2556V16.1889C26.0914 15.5977 26.0914 15.3021 25.9763 15.0763C25.8751 14.8777 25.7137 14.7162 25.515 14.615C25.2892 14.5 24.9937 14.5 24.4025 14.5H16.6433C15.906 14.5 15.5374 14.5 15.2852 14.6528C15.0642 14.7867 14.9 14.997 14.8237 15.2439C14.7366 15.5256 14.8261 15.8832 15.0049 16.5985L16.5914 22.9444Z" stroke="#7B61FF" strokeWidth="2" strokeLinecap="round" strokeLinejoin="round"/>
</g>
<defs>
<filter id="filter0_d_1291_2875" x="-2" y="-1" width="52" height="52" filterUnits="userSpaceOnUse" colorInterpolationFilters="sRGB">
<feFlood flood-opacity="0" result="BackgroundImageFix"/>
<feColorMatrix in="SourceAlpha" type="matrix" values="0 0 0 0 0 0 0 0 0 0 0 0 0 0 0 0 0 0 127 0" result="hardAlpha"/>
<feOffset dy="1"/>
<feGaussianBlur stdDeviation="1"/>
<feColorMatrix type="matrix" values="0 0 0 0 0.0627451 0 0 0 0 0.0941176 0 0 0 0 0.156863 0 0 0 0.05 0"/>
<feBlend mode="normal" in2="BackgroundImageFix" result="effect1_dropShadow_1291_2875"/>
<feBlend mode="normal" in="SourceGraphic" in2="effect1_dropShadow_1291_2875" result="shape"/>
</filter>
</defs>
</svg>
