<svg width="24" height="24" viewBox="0 0 24 24" fill="none" xmlns="http://www.w3.org/2000/svg">
<g opacity="0.65">
<path d="M16.7 12.5V19H6.3V12.5M11.5 19V9.25M11.5 9.25H8.575C8.14402 9.25 7.7307 9.0788 7.42595 8.77405C7.1212 8.4693 6.95 8.05598 6.95 7.625C6.95 7.19402 7.1212 6.7807 7.42595 6.47595C7.7307 6.1712 8.14402 6 8.575 6C10.85 6 11.5 9.25 11.5 9.25ZM11.5 9.25H14.425C14.856 9.25 15.2693 9.0788 15.574 8.77405C15.8788 8.4693 16.05 8.05598 16.05 7.625C16.05 7.19402 15.8788 6.7807 15.574 6.47595C15.2693 6.1712 14.856 6 14.425 6C12.15 6 11.5 9.25 11.5 9.25ZM5 9.25H18V12.5H5V9.25Z" stroke="white" stroke-width="1.5" stroke-linecap="round" stroke-linejoin="round"/>
</g>
</svg>
