<svg width="36" height="36" viewBox="0 0 36 36" fill="none" xmlns="http://www.w3.org/2000/svg">
<path d="M17.7182 26.0939C17.7186 24.7129 18.0912 23.3576 18.7968 22.1704C19.5023 20.9833 20.5148 20.0083 21.7277 19.348C22.9406 18.6877 24.309 18.3664 25.689 18.4181C27.069 18.4697 28.4096 18.8923 29.5697 19.6415C29.5779 19.0723 29.5823 18.4649 29.5823 17.8096C29.5823 14.4398 29.4677 12.3367 29.2412 10.1583H29.2734C29.1482 8.94436 28.6846 7.79002 27.9355 6.82668C27.1863 5.86335 26.1817 5.12975 25.036 4.70941C24.9755 4.68649 24.9149 4.66467 24.8538 4.64393C24.401 4.49174 23.9329 4.38981 23.4579 4.33997L23.4126 4.33506C21.6003 4.14898 21.3094 4 17.4879 4C13.6663 4 13.048 4.14898 11.2374 4.33779L11.1921 4.3427C10.6934 4.39507 10.2025 4.50494 9.72906 4.67012V4.64557C8.54862 5.04692 7.508 5.77832 6.73057 6.75306C5.95313 7.72781 5.47148 8.90502 5.3427 10.1452C5.11569 12.328 5 14.4333 5 17.8096C5 21.1858 5.11569 23.2911 5.3427 25.474C5.49772 26.9635 6.16031 28.3544 7.2193 29.4133C8.2783 30.4722 9.66926 31.1346 11.1588 31.2895L11.2041 31.2944C13.0164 31.4832 13.3067 31.6322 17.1282 31.6322C18.3943 31.6322 19.3111 31.6158 20.0308 31.5869C19.2978 30.8723 18.7155 30.018 18.3183 29.0746C17.9211 28.1311 17.717 27.1176 17.7182 26.0939ZM11.3334 11.266H23.2467C23.5914 11.266 23.922 11.403 24.1658 11.6468C24.4096 11.8905 24.5465 12.2212 24.5465 12.5659C24.5465 12.9106 24.4096 13.2413 24.1658 13.485C23.922 13.7288 23.5914 13.8658 23.2467 13.8658H11.3362C10.9914 13.8658 10.6608 13.7288 10.417 13.485C10.1732 13.2413 10.0363 12.9106 10.0363 12.5659C10.0363 12.2212 10.1732 11.8905 10.417 11.6468C10.6608 11.403 10.9914 11.266 11.3362 11.266H11.3334ZM11.3334 19.4281C10.9932 19.4211 10.6693 19.2811 10.4312 19.038C10.193 18.795 10.0597 18.4683 10.0597 18.128C10.0597 17.7877 10.193 17.461 10.4312 17.2179C10.6693 16.9749 10.9932 16.8348 11.3334 16.8278H18.128C18.301 16.8243 18.4729 16.8553 18.6337 16.9191C18.7946 16.9828 18.9411 17.078 19.0647 17.1991C19.1883 17.3202 19.2864 17.4647 19.3535 17.6242C19.4205 17.7837 19.455 17.955 19.455 18.128C19.455 18.301 19.4205 18.4723 19.3535 18.6318C19.2864 18.7913 19.1883 18.9358 19.0647 19.0569C18.9411 19.178 18.7946 19.2732 18.6337 19.3369C18.4729 19.4007 18.301 19.4317 18.128 19.4281H11.3334Z" fill="#FFEA3D"/>
<path d="M25.4001 20.2478C24.2438 20.2478 23.1135 20.5907 22.1521 21.2331C21.1908 21.8754 20.4414 22.7885 19.999 23.8567C19.5565 24.9249 19.4407 26.1004 19.6663 27.2344C19.8919 28.3685 20.4487 29.4102 21.2662 30.2277C22.0838 31.0453 23.1255 31.6021 24.2596 31.8277C25.3936 32.0533 26.569 31.9375 27.6373 31.495C28.7055 31.0525 29.6186 30.3032 30.2609 29.3418C30.9033 28.3805 31.2462 27.2502 31.2462 26.0939C31.2462 24.5434 30.6303 23.0565 29.5339 21.9601C28.4375 20.8637 26.9506 20.2478 25.4001 20.2478ZM27.7171 26.9496H25.2838C25.0993 26.9496 24.9223 26.8763 24.7919 26.7458C24.6614 26.6153 24.5881 26.4383 24.5881 26.2538V22.5157C24.5881 22.3312 24.6614 22.1542 24.7919 22.0238C24.9223 21.8933 25.0993 21.82 25.2838 21.82C25.4684 21.82 25.6453 21.8933 25.7758 22.0238C25.9063 22.1542 25.9796 22.3312 25.9796 22.5157V25.558H27.7171C27.9017 25.558 28.0786 25.6313 28.2091 25.7618C28.3396 25.8923 28.4129 26.0693 28.4129 26.2538C28.4129 26.4383 28.3396 26.6153 28.2091 26.7458C28.0786 26.8763 27.9017 26.9496 27.7171 26.9496Z" fill="#FFEA3D"/>
</svg>
