<svg width="24" height="24" viewBox="0 0 24 24" fill="none" xmlns="http://www.w3.org/2000/svg">
<g opacity="0.65">
<path d="M10.0419 17.4346C10.108 17.3996 10.1767 17.3494 10.2454 17.2849L11.59 16.0216L10.0566 14.9661L10.0419 17.4346Z" fill="white"/>
<path d="M7.7468 13.1456L9.07689 16.1903L9.08958 14.0616C9.08961 14.0563 9.09024 14.0512 9.09046 14.0459C9.09021 13.91 9.14627 13.7794 9.24724 13.6868L12.7795 10.4467L7.7468 13.1456Z" fill="white"/>
<path d="M19.9455 5.05294C19.9169 5.01778 19.8625 4.99997 19.7838 4.99997C19.6984 4.99997 19.5941 5.02238 19.482 5.06484L4.31158 10.8183C3.89486 10.9764 3.89633 11.231 4.31486 11.3841L7.08402 12.3977L15.7293 7.76147C15.9453 7.64566 16.2137 7.70869 16.3555 7.90853C16.4974 8.10838 16.4683 8.38256 16.2877 8.54822L10.3545 13.9907L16.5788 18.2749C16.5839 18.2785 16.589 18.2821 16.594 18.2859C16.736 18.3919 16.8791 18.4503 16.9972 18.4503C17.2666 18.4502 17.3634 18.1234 17.3924 17.9829L19.9762 5.48644C20.0243 5.25369 19.9919 5.10988 19.9455 5.05294Z" fill="white"/>
</g>
</svg>
