<svg width="24" height="24" viewBox="0 0 24 24" fill="none" xmlns="http://www.w3.org/2000/svg">
<g clipPath="url(#clip0_503_193)">
<rect width="24" height="24" rx="4" fill="#111111"/>
<g opacity="0.65">
<path d="M15 15.75L18.75 12M18.75 12L15 8.24999M18.75 12H9.75M12 15.75C12 15.9717 12 16.0825 11.9918 16.1785C11.9061 17.1765 11.1711 17.9976 10.1888 18.1929C10.0943 18.2117 9.98401 18.224 9.76376 18.2485L8.99771 18.3336C7.84686 18.4614 7.27141 18.5254 6.81425 18.3791C6.2047 18.184 5.70706 17.7386 5.44588 17.1543C5.25 16.7161 5.25 16.1372 5.25 14.9792V9.02076C5.25 7.86281 5.25 7.28383 5.44588 6.84562C5.70706 6.26135 6.2047 5.81594 6.81425 5.62088C7.27141 5.47459 7.84684 5.53852 8.99771 5.6664L9.76376 5.75152C9.98409 5.776 10.0943 5.78824 10.1888 5.80703C11.1711 6.00235 11.9061 6.82352 11.9918 7.82144C12 7.91746 12 8.0283 12 8.24999" stroke="white" strokeWidth="1.5" strokeLinecap="round" strokeLinejoin="round"/>
</g>
</g>
<defs>
<clipPath id="clip0_503_193">
<rect width="24" height="24" rx="4" fill="white"/>
</clipPath>
</defs>
</svg>
