<svg width="24" height="24" viewBox="0 0 24 24" fill="none" xmlns="http://www.w3.org/2000/svg">
<g opacity="0.65">
<path d="M7.29688 18.4561H16.7031C18.1797 18.4561 18.9453 17.6904 18.9453 16.2344V7.91504C18.9453 6.45215 18.1797 5.69336 16.7031 5.69336H7.29688C5.82031 5.69336 5.05469 6.45215 5.05469 7.91504V16.2344C5.05469 17.6973 5.82031 18.4561 7.29688 18.4561ZM7.27637 17.1162C6.70898 17.1162 6.39453 16.8154 6.39453 16.2207V9.9043C6.39453 9.30273 6.70898 9.00879 7.27637 9.00879H16.71C17.2842 9.00879 17.6055 9.30273 17.6055 9.9043V16.2207C17.6055 16.8154 17.2842 17.1162 16.71 17.1162H7.27637ZM10.6807 11.3809H11.084C11.3301 11.3809 11.4121 11.3057 11.4121 11.0596V10.6631C11.4121 10.417 11.3301 10.3418 11.084 10.3418H10.6807C10.4414 10.3418 10.3594 10.417 10.3594 10.6631V11.0596C10.3594 11.3057 10.4414 11.3809 10.6807 11.3809ZM12.9229 11.3809H13.3193C13.5654 11.3809 13.6475 11.3057 13.6475 11.0596V10.6631C13.6475 10.417 13.5654 10.3418 13.3193 10.3418H12.9229C12.6768 10.3418 12.5947 10.417 12.5947 10.6631V11.0596C12.5947 11.3057 12.6768 11.3809 12.9229 11.3809ZM15.1582 11.3809H15.5547C15.8008 11.3809 15.8828 11.3057 15.8828 11.0596V10.6631C15.8828 10.417 15.8008 10.3418 15.5547 10.3418H15.1582C14.9121 10.3418 14.8301 10.417 14.8301 10.6631V11.0596C14.8301 11.3057 14.9121 11.3809 15.1582 11.3809ZM8.44531 13.582H8.84863C9.09473 13.582 9.17676 13.5068 9.17676 13.2607V12.8643C9.17676 12.6182 9.09473 12.543 8.84863 12.543H8.44531C8.20605 12.543 8.12402 12.6182 8.12402 12.8643V13.2607C8.12402 13.5068 8.20605 13.582 8.44531 13.582ZM10.6807 13.582H11.084C11.3301 13.582 11.4121 13.5068 11.4121 13.2607V12.8643C11.4121 12.6182 11.3301 12.543 11.084 12.543H10.6807C10.4414 12.543 10.3594 12.6182 10.3594 12.8643V13.2607C10.3594 13.5068 10.4414 13.582 10.6807 13.582ZM12.9229 13.582H13.3193C13.5654 13.582 13.6475 13.5068 13.6475 13.2607V12.8643C13.6475 12.6182 13.5654 12.543 13.3193 12.543H12.9229C12.6768 12.543 12.5947 12.6182 12.5947 12.8643V13.2607C12.5947 13.5068 12.6768 13.582 12.9229 13.582ZM15.1582 13.582H15.5547C15.8008 13.582 15.8828 13.5068 15.8828 13.2607V12.8643C15.8828 12.6182 15.8008 12.543 15.5547 12.543H15.1582C14.9121 12.543 14.8301 12.6182 14.8301 12.8643V13.2607C14.8301 13.5068 14.9121 13.582 15.1582 13.582ZM8.44531 15.7832H8.84863C9.09473 15.7832 9.17676 15.708 9.17676 15.4619V15.0654C9.17676 14.8193 9.09473 14.7441 8.84863 14.7441H8.44531C8.20605 14.7441 8.12402 14.8193 8.12402 15.0654V15.4619C8.12402 15.708 8.20605 15.7832 8.44531 15.7832ZM10.6807 15.7832H11.084C11.3301 15.7832 11.4121 15.708 11.4121 15.4619V15.0654C11.4121 14.8193 11.3301 14.7441 11.084 14.7441H10.6807C10.4414 14.7441 10.3594 14.8193 10.3594 15.0654V15.4619C10.3594 15.708 10.4414 15.7832 10.6807 15.7832ZM12.9229 15.7832H13.3193C13.5654 15.7832 13.6475 15.708 13.6475 15.4619V15.0654C13.6475 14.8193 13.5654 14.7441 13.3193 14.7441H12.9229C12.6768 14.7441 12.5947 14.8193 12.5947 15.0654V15.4619C12.5947 15.708 12.6768 15.7832 12.9229 15.7832Z" fill="white"/>
</g>
</svg>
