<svg width="24" height="24" viewBox="0 0 24 24" fill="none" xmlns="http://www.w3.org/2000/svg">
<g opacity="0.65">
<g clipPath="url(#clip0_1159_1053)">
<path d="M11.9938 19.425C10.8938 19.425 9.77814 19.425 8.67501 19.4188C8.22501 19.4188 7.95939 19.1563 7.94689 18.7063C7.93126 18.0969 7.92189 17.5438 7.95001 16.9813C8.01251 15.75 9.02501 15.15 10.1969 15.2625C10.2 14.8656 10.2094 14.4625 10.1844 14.0844C10.175 14.0407 10.0438 13.9375 10 13.9031C9.50001 13.5188 9.01251 13.1531 8.54376 12.8125C8.44689 12.7407 8.33126 12.6656 8.22814 12.6531C5.81876 12.3625 3.98751 10.2875 4.00314 7.8594C4.00001 7.47815 4.00001 7.0719 4.00314 6.57815C4.00626 5.94065 4.25001 5.70315 4.90001 5.70002C5.62501 5.69377 6.64689 5.70315 7.36564 5.70002C7.36564 5.06565 7.44689 4.56252 8.20001 4.57502C9.46564 4.5719 10.7406 4.5719 11.9938 4.5719C13.2594 4.5719 14.5344 4.5719 15.7875 4.57502C16.5188 4.55627 16.6438 5.06877 16.6031 5.70002C17.2938 5.70315 18.1188 5.70002 18.7938 5.6969C20.0281 5.68752 19.9844 5.95315 19.9813 7.22815C20.1906 9.8969 18.4969 12.2938 15.7906 12.65C15.6625 12.6688 15.525 12.7594 15.4063 12.8438C14.975 13.1531 14.4688 13.5219 13.9813 13.9063C13.8813 13.9844 13.7969 14.1157 13.7906 14.2063C13.7625 14.5438 13.7813 14.9063 13.7813 15.2625C14.9406 15.1563 15.9438 15.7282 16.025 16.9438C16.0625 17.5344 16.0438 18.1281 16.0313 18.7094C16.0219 19.1625 15.7563 19.4219 15.3031 19.4219C14.2094 19.425 13.0938 19.425 11.9938 19.425ZM14.6875 18.0438C14.6906 17.7094 14.7063 17.3625 14.6813 17.0438C14.6594 16.7688 14.4938 16.6188 14.2219 16.6188C12.6938 16.6125 11.2188 16.6125 9.75314 16.6188C9.48439 16.6188 9.32189 16.775 9.30314 17.0532C9.27814 17.3719 9.29376 17.7125 9.29689 18.0438H14.6875ZM12.4469 15.2344C12.45 14.7219 12.4656 14.2031 12.4406 13.7063C12.4188 13.2531 12.6063 12.975 13.0438 12.8094C14.4625 12.275 15.2469 11.1406 15.25 9.61565C15.2438 8.38752 15.2688 7.16252 15.2375 5.95002H8.72814C8.72814 7.20315 8.72189 8.46877 8.73126 9.6969C8.74064 11.1375 9.55001 12.2969 10.9 12.7969C11.3781 12.9719 11.5688 13.2594 11.5438 13.75C11.5156 14.2469 11.5344 14.7407 11.5375 15.2344H12.4469ZM5.38439 7.07502C5.26251 8.70315 5.95314 10.6969 7.55939 11.0656C7.22189 9.73127 7.46564 8.41565 7.35939 7.07502H5.38439ZM16.5094 11.0563C17.9813 10.6688 18.9219 8.49065 18.5813 7.08752H16.6406L16.5094 11.0563Z" fill="white"/>
</g>
</g>
<defs>
<clipPath id="clip0_1159_1053">
<rect width="16" height="16" fill="white" transform="translate(4 4)"/>
</clipPath>
</defs>
</svg>
