<svg width="36" height="36" viewBox="0 0 36 36" fill="none" xmlns="http://www.w3.org/2000/svg">
<path d="M18 3C9.71602 3 3 9.71602 3 18C3 26.284 9.71602 33 18 33C26.284 33 33 26.284 33 18C33 9.71602 26.284 3 18 3ZM17.6373 21.1904C17.6373 21.4277 17.543 21.6553 17.3752 21.8231C17.2075 21.9909 16.9799 22.0852 16.7426 22.0852H10.8088C10.5715 22.0852 10.3439 21.9909 10.1761 21.8231C10.0083 21.6553 9.91406 21.4277 9.91406 21.1904V21.1787C9.91437 20.9416 10.0088 20.7143 10.1765 20.5468C10.3443 20.3793 10.5717 20.2852 10.8088 20.2852H16.7426C16.8601 20.2852 16.9764 20.3083 17.085 20.3533C17.1935 20.3982 17.2922 20.4641 17.3752 20.5472C17.4583 20.6303 17.5242 20.7289 17.5692 20.8375C17.6142 20.946 17.6373 21.0624 17.6373 21.1799V21.1904ZM17.6373 14.874C17.6371 15.1112 17.5428 15.3386 17.375 15.5063C17.2073 15.674 16.9798 15.7682 16.7426 15.7682H10.8088C10.5716 15.7682 10.3441 15.674 10.1763 15.5063C10.0086 15.3386 9.91422 15.1112 9.91406 14.874V14.8617C9.91406 14.6244 10.0083 14.3968 10.1761 14.2291C10.3439 14.0613 10.5715 13.967 10.8088 13.967H16.7426C16.8601 13.967 16.9764 13.9901 17.085 14.0351C17.1935 14.0801 17.2922 14.146 17.3752 14.2291C17.4583 14.3121 17.5242 14.4108 17.5692 14.5193C17.6142 14.6279 17.6373 14.7442 17.6373 14.8617V14.874ZM24.89 24.0082C24.807 24.0914 24.7085 24.1574 24.5999 24.2024C24.4914 24.2474 24.375 24.2706 24.2575 24.2706C24.14 24.2706 24.0237 24.2474 23.9151 24.2024C23.8066 24.1574 23.708 24.0914 23.625 24.0082L22.0658 22.449L20.4873 24.0129C20.3195 24.1797 20.0926 24.2734 19.856 24.2734C19.6194 24.2734 19.3924 24.1797 19.2246 24.0129C19.1413 23.9295 19.0753 23.8305 19.0303 23.7216C18.9854 23.6126 18.9624 23.4959 18.9626 23.378C18.9629 23.2601 18.9865 23.1435 19.0319 23.0348C19.0774 22.926 19.1439 22.8273 19.2275 22.7443L20.799 21.1869L19.2305 19.6271C19.0619 19.4601 18.9667 19.2329 18.9656 18.9956C18.9646 18.7583 19.0578 18.5303 19.2249 18.3618C19.392 18.1933 19.6191 18.098 19.8564 18.097C20.0937 18.0959 20.3217 18.1892 20.4902 18.3562L22.0688 19.9201L23.625 18.3609C23.7928 18.1932 24.0203 18.099 24.2575 18.099C24.4947 18.099 24.7223 18.1932 24.89 18.3609C24.9732 18.4439 25.0392 18.5425 25.0842 18.6511C25.1293 18.7596 25.1524 18.876 25.1524 18.9935C25.1524 19.111 25.1293 19.2273 25.0842 19.3359C25.0392 19.4444 24.9732 19.543 24.89 19.626L23.332 21.1846L24.89 22.7461C25.0571 22.9136 25.151 23.1405 25.151 23.3771C25.151 23.6137 25.0571 23.8407 24.89 24.0082ZM25.8275 13.2645L22.1127 16.9963C22.0603 17.0488 21.9981 17.0904 21.9297 17.1188C21.8612 17.1472 21.7878 17.1618 21.7137 17.1618C21.6395 17.1618 21.5661 17.1472 21.4977 17.1188C21.4292 17.0904 21.367 17.0488 21.3146 16.9963L19.2252 14.9068C19.0575 14.7391 18.9633 14.5115 18.9633 14.2743C18.9633 14.0371 19.0575 13.8096 19.2252 13.6418C19.3931 13.4741 19.6207 13.3798 19.858 13.3798C20.0953 13.3798 20.3229 13.4741 20.4908 13.6418L21.6914 14.8459L24.5479 11.9895C24.6316 11.9058 24.7311 11.8395 24.8406 11.7946C24.9501 11.7496 25.0674 11.7268 25.1858 11.7275C25.3041 11.7282 25.4212 11.7524 25.5302 11.7987C25.6391 11.845 25.7378 11.9124 25.8205 11.9971L25.8311 12.0082C25.9954 12.1763 26.087 12.4024 26.0859 12.6375C26.0848 12.8727 25.9911 13.0979 25.8252 13.2645H25.8275Z" fill="#FFEA3D"/>
</svg>
