<svg width="36" height="36" viewBox="0 0 36 36" fill="none" xmlns="http://www.w3.org/2000/svg">
<path d="M31.2344 28H4.875C4.36728 28.1846 4 28.5979 4 29.1077V31.0769C4 31.5867 4.36728 32 4.82031 32H31.1797C31.6327 32 32 31.5867 32 31.0769V29.1077C32 28.5979 31.6327 28.1846 31.2344 28Z" fill="#FFEA3D"/>
<path d="M31.4941 9.68945L18.3144 4.06442C18.1131 3.97853 17.8869 3.97853 17.6856 4.06442L4.50591 9.68945C4.19961 9.82012 4 10.1277 4 10.4687V12.1562C4 12.6222 4.36728 13 4.82031 13H31.1797C31.6327 13 32 12.6222 32 12.1562V10.4687C32 10.1277 31.8004 9.82012 31.4941 9.68945ZM22.9219 10.4687H13.0781C12.6251 10.4687 12.2578 10.091 12.2578 9.62498C12.2578 9.15901 12.6251 8.78123 13.0781 8.78123H22.9219C23.3749 8.78123 23.7422 9.15901 23.7422 9.62498C23.7422 10.091 23.3749 10.4687 22.9219 10.4687Z" fill="#FFEA3D"/>
<path d="M6 25V27H12V25C12 24.4477 11.6496 24 11.2174 24H6.78261C6.3504 24 6 24.4477 6 25Z" fill="#FFEA3D"/>
<path d="M7 14H11V23H7V14Z" fill="#FFEA3D"/>
<path d="M25 14H29V23H25V14Z" fill="#FFEA3D"/>
<path d="M24 25V27H30V25C30 24.4477 29.6496 24 29.2174 24H24.7826C24.3504 24 24 24.4477 24 25Z" fill="#FFEA3D"/>
<path d="M18 23.1053C17.4486 23.1053 17 22.7157 17 22.2368C17 21.7572 16.5523 21.3684 16 21.3684C15.4477 21.3684 15 21.7572 15 22.2368C15 23.369 15.8361 24.3343 17 24.6927V25.1316C17 25.6112 17.4477 26 18 26C18.5523 26 19 25.6112 19 25.1316V24.6927C20.1639 24.3343 21 23.369 21 22.2368C21 20.8003 19.6542 19.6316 18 19.6316C17.4486 19.6316 17 19.242 17 18.7632C17 18.2843 17.4486 17.8947 18 17.8947C18.5514 17.8947 19 18.2843 19 18.7632C19 19.2428 19.4477 19.6316 20 19.6316C20.5523 19.6316 21 19.2428 21 18.7632C21 17.631 20.1639 16.6657 19 16.3073V15.8684C19 15.3888 18.5523 15 18 15C17.4477 15 17 15.3888 17 15.8684V16.3073C15.8361 16.6657 15 17.631 15 18.7632C15 20.1997 16.3458 21.3684 18 21.3684C18.5514 21.3684 19 21.758 19 22.2368C19 22.7157 18.5514 23.1053 18 23.1053Z" fill="#FFEA3D"/>
</svg>
