<svg width="24" height="24" viewBox="0 0 24 24" fill="none" xmlns="http://www.w3.org/2000/svg">
<path d="M9.6 6H7.06667C6.6933 6 6.50661 6 6.36401 6.07266C6.23856 6.13658 6.13658 6.23856 6.07266 6.36401C6 6.50661 6 6.6933 6 7.06667V9.6C6 9.97337 6 10.1601 6.07266 10.3027C6.13658 10.4281 6.23856 10.5301 6.36401 10.594C6.50661 10.6667 6.6933 10.6667 7.06667 10.6667H9.6C9.97337 10.6667 10.1601 10.6667 10.3027 10.594C10.4281 10.5301 10.5301 10.4281 10.594 10.3027C10.6667 10.1601 10.6667 9.97337 10.6667 9.6V7.06667C10.6667 6.6933 10.6667 6.50661 10.594 6.36401C10.5301 6.23856 10.4281 6.13658 10.3027 6.07266C10.1601 6 9.97337 6 9.6 6Z" stroke="white" strokeWidth="1.5" strokeLinecap="round" strokeLinejoin="round"/>
<path d="M16.9333 6H14.4C14.0266 6 13.8399 6 13.6973 6.07266C13.5719 6.13658 13.4699 6.23856 13.406 6.36401C13.3333 6.50661 13.3333 6.6933 13.3333 7.06667V9.6C13.3333 9.97337 13.3333 10.1601 13.406 10.3027C13.4699 10.4281 13.5719 10.5301 13.6973 10.594C13.8399 10.6667 14.0266 10.6667 14.4 10.6667H16.9333C17.3067 10.6667 17.4934 10.6667 17.636 10.594C17.7614 10.5301 17.8634 10.4281 17.9273 10.3027C18 10.1601 18 9.97337 18 9.6V7.06667C18 6.6933 18 6.50661 17.9273 6.36401C17.8634 6.23856 17.7614 6.13658 17.636 6.07266C17.4934 6 17.3067 6 16.9333 6Z" stroke="white" strokeWidth="1.5" strokeLinecap="round" strokeLinejoin="round"/>
<path d="M16.9333 13.3333H14.4C14.0266 13.3333 13.8399 13.3333 13.6973 13.406C13.5719 13.4699 13.4699 13.5719 13.406 13.6973C13.3333 13.8399 13.3333 14.0266 13.3333 14.4V16.9333C13.3333 17.3067 13.3333 17.4934 13.406 17.636C13.4699 17.7614 13.5719 17.8634 13.6973 17.9273C13.8399 18 14.0266 18 14.4 18H16.9333C17.3067 18 17.4934 18 17.636 17.9273C17.7614 17.8634 17.8634 17.7614 17.9273 17.636C18 17.4934 18 17.3067 18 16.9333V14.4C18 14.0266 18 13.8399 17.9273 13.6973C17.8634 13.5719 17.7614 13.4699 17.636 13.406C17.4934 13.3333 17.3067 13.3333 16.9333 13.3333Z" stroke="white" strokeWidth="1.5" strokeLinecap="round" strokeLinejoin="round"/>
<path d="M9.6 13.3333H7.06667C6.6933 13.3333 6.50661 13.3333 6.36401 13.406C6.23856 13.4699 6.13658 13.5719 6.07266 13.6973C6 13.8399 6 14.0266 6 14.4V16.9333C6 17.3067 6 17.4934 6.07266 17.636C6.13658 17.7614 6.23856 17.8634 6.36401 17.9273C6.50661 18 6.6933 18 7.06667 18H9.6C9.97337 18 10.1601 18 10.3027 17.9273C10.4281 17.8634 10.5301 17.7614 10.594 17.636C10.6667 17.4934 10.6667 17.3067 10.6667 16.9333V14.4C10.6667 14.0266 10.6667 13.8399 10.594 13.6973C10.5301 13.5719 10.4281 13.4699 10.3027 13.406C10.1601 13.3333 9.97337 13.3333 9.6 13.3333Z" stroke="white" strokeWidth="1.5" strokeLinecap="round" strokeLinejoin="round"/>
</svg>
